<svg width="400" height="400" viewBox="0 0 400 400" fill="none" xmlns="http://www.w3.org/2000/svg">
    <path d="M291.257 112H108.743C94.4001 112 82.6667 123.733 82.6667 138.077V261.947C82.6667 276.291 94.4001 288.024 108.743 288.024H291.257C305.6 288.024 317.333 276.291 317.333 261.947V138.077C317.333 123.733 305.6 112 291.257 112ZM307.564 259.217C307.564 272.364 301.697 278.23 288.551 278.23H111.473C98.3272 278.23 92.4605 272.364 92.4605 259.217V140.783C92.4605 127.636 98.3272 121.77 111.473 121.77H288.551C301.697 121.77 307.564 127.636 307.564 140.783V259.217ZM156.012 180.436L180.437 200L243.988 146.218L292.885 190.23V263.576H107.115V219.564L156.012 180.436ZM126.679 136.448C115.879 136.448 107.115 145.213 107.115 156.012C107.115 166.811 115.879 175.576 126.679 175.576C137.478 175.576 146.242 166.811 146.242 156.012C146.242 145.213 137.478 136.448 126.679 136.448Z" fill="white"/>
</svg>
